<?xml version="1.0" encoding="UTF-8" standalone="no"?>
<svg width="483px" height="482px" viewBox="0 0 483 482" version="1.1" xmlns="http://www.w3.org/2000/svg" xmlns:xlink="http://www.w3.org/1999/xlink" xmlns:sketch="http://www.bohemiancoding.com/sketch/ns">
    <!-- Generator: Sketch 3.3 (11970) - http://www.bohemiancoding.com/sketch -->
    <title>noon_pacific_logo_vector</title>
    <desc>Created with Sketch.</desc>
    <defs></defs>
    <g id="Page-1" stroke="none" stroke-width="1" fill="none" fill-rule="evenodd" sketch:type="MSPage">
        <g id="noon_pacific_logo_vector" sketch:type="MSLayerGroup" fill="#FFFFFF">
            <path d="M241.911,481.831 C114.77,482.852 4.544,381.413 0.741,248.839 C-3.186,111.973 103.571,7.741 227.546,1.2 C369.518,-6.29 478.582,104.743 482.323,233.959 C486.279,370.541 376.423,482.097 241.911,481.831 L241.911,481.831 Z M11.749,236.399 C10.826,249.951 12.57,266.613 15.986,283.112 C16.258,284.424 17.964,286.134 19.257,286.392 C21.639,286.866 24.23,286.575 26.698,286.292 C39.429,284.837 50.818,279.687 62.047,273.801 C75.256,266.878 88.985,261.48 104.456,263.708 C116.024,265.375 126.188,270.699 136.408,275.885 C147.874,281.704 159.471,287.367 172.784,286.479 C184.67,285.687 195.378,280.913 206.103,275.988 C216.155,271.371 226.413,266.642 237.089,264.085 C250.733,260.817 263.708,265.497 275.934,271.744 C287.002,277.4 297.917,283.596 310.48,285.186 C316.459,285.943 323.054,287.021 328.551,285.314 C339.863,281.803 350.805,276.901 361.566,271.862 C374.303,265.897 387.393,260.749 401.407,264.155 C412.084,266.75 422.103,271.993 432.482,275.879 C442.227,279.528 452.02,283.056 461.883,286.367 C463.965,287.065 466.418,287.131 467.08,283.596 C473.042,251.796 472.984,220.182 465.673,188.517 C457.303,152.273 440.235,120.551 416.598,92.253 C396.848,68.608 372.867,50.026 345.422,36.055 C318.76,22.482 290.415,14.846 260.603,12.072 C238.343,10 216.39,11.905 194.568,15.791 C175.302,19.222 157.149,26.331 139.698,34.989 C97.387,55.982 64.544,87.301 41.096,128.166 C22.513,160.55 12.091,195.454 11.749,236.399 L11.749,236.399 Z M462.77,305.431 C458.9,304.589 455.49,304.342 452.491,303.103 C442.38,298.926 432.288,294.66 422.422,289.941 C407.212,282.666 391.64,278.872 375.289,285.145 C366.177,288.642 357.442,293.168 348.67,297.5 C333.148,305.165 317.131,308.45 300.515,301.955 C290.167,297.911 280.283,292.688 270.168,288.042 C256.728,281.868 242.851,279.598 228.673,284.927 C220.319,288.068 212.248,292.009 204.195,295.892 C190.513,302.489 176.507,308.272 161.076,304.127 C151.858,301.651 143.124,297.359 134.201,293.813 C125.285,290.268 116.642,285.771 107.452,283.245 C93.411,279.386 80.258,283.963 67.618,290.063 C54.481,296.403 41.824,304.037 26.777,305.269 C24.858,305.426 22.956,305.787 20.435,306.138 C21.4,309.114 22.172,311.62 23.023,314.101 C25.797,322.186 26.032,322.792 34.134,319.816 C46.078,315.43 57.837,310.439 69.362,305.038 C85.325,297.559 101.465,295.243 118.056,302.118 C126.935,305.798 135.445,310.368 144.14,314.496 C157.61,320.891 171.64,324.178 186.135,319.048 C195.625,315.689 204.747,311.168 213.773,306.648 C230.537,298.252 247.67,294.568 265.663,302.036 C274.843,305.845 283.69,310.456 292.683,314.714 C305.702,320.878 319.24,323.952 333.276,319.241 C341.716,316.408 349.796,312.414 357.856,308.561 C367.471,303.964 377.046,299.342 387.811,298.202 C400.902,296.814 412.669,301.157 424.204,306.7 C433.02,310.938 441.9,315.099 450.986,318.703 C456.408,320.852 458.806,321.038 459.886,314.482 C460.361,311.584 461.658,308.823 462.77,305.431 L462.77,305.431 Z M450.655,337.968 C436.944,331.761 424.059,325.256 410.669,320.056 C397.479,314.933 383.941,315.762 370.945,321.623 C363.382,325.034 355.905,328.647 348.471,332.334 C333.139,339.938 317.285,343.113 300.823,336.816 C291.698,333.326 282.907,328.901 274.135,324.556 C259.094,317.107 243.572,313.904 227.432,319.964 C218.291,323.397 209.561,327.968 200.769,332.279 C185.418,339.807 169.591,343.186 153.096,336.903 C143.971,333.427 135.159,329.05 126.428,324.641 C109.725,316.206 92.769,313.821 75.2,321.614 C61.311,327.774 47.488,334.084 33.425,340.421 C34.767,343.009 36.555,345.988 37.894,349.159 C39.452,352.85 41.781,353.101 44.999,351.54 C53.063,347.628 61.165,343.792 69.246,339.916 C83.182,333.23 97.735,329.968 112.687,335.229 C123.295,338.961 133.433,344.107 143.606,348.985 C157.425,355.611 171.687,358.943 186.534,353.721 C195.732,350.487 204.529,346.018 213.3,341.686 C228.165,334.345 243.493,329.542 259.891,335.077 C269.597,338.353 278.823,343.104 288.149,347.438 C299.551,352.737 311.052,357.387 324.025,355.928 C335.133,354.677 345.039,350.032 354.81,345 C366.195,339.137 377.606,333.243 390.816,332.888 C408.804,332.404 423.819,340.608 438.556,349.529 C440.028,350.42 441.461,351.372 443.231,352.499 C445.861,347.351 448.163,342.845 450.655,337.968 L450.655,337.968 Z M434.366,366.934 C433.765,366.244 433.434,365.589 432.905,365.298 C429.415,363.385 425.884,361.549 422.364,359.691 C404.129,350.068 385.684,348.835 366.856,358.06 C357.779,362.509 348.698,367.007 339.361,370.856 C327.82,375.614 315.718,376.856 303.854,372.384 C293.643,368.535 283.706,363.89 273.859,359.156 C258.544,351.793 242.839,348.816 226.565,355.038 C217.755,358.405 209.306,362.772 200.849,366.998 C185.538,374.647 169.728,377.958 153.256,371.712 C143.985,368.196 135.063,363.688 126.18,359.233 C107.735,349.984 89.262,349.009 70.551,358.254 C63.642,361.668 56.741,365.097 49.801,368.537 C50.426,369.746 50.604,370.218 50.885,370.618 C57.571,380.129 57.604,380.192 67.952,375.255 C82.343,368.387 97.32,364.621 112.831,370.046 C123.586,373.808 133.804,379.154 144.143,384.046 C159.352,391.24 174.83,393.9 190.815,387.005 C199.933,383.072 208.856,378.681 217.825,374.408 C231.509,367.89 245.817,364.95 260.39,369.982 C271.168,373.704 281.406,379.044 291.768,383.909 C305.256,390.243 319.221,393.847 333.702,388.67 C344.444,384.828 354.77,379.73 365.051,374.72 C382.016,366.453 398.981,365.191 416.52,372.885 C427.392,377.656 427.506,377.394 434.366,366.934 L434.366,366.934 Z M415.966,391.712 C403.623,386.164 391.572,384.378 379.788,388.366 C367.759,392.437 356.362,398.396 344.736,403.636 C330.204,410.185 315.31,412.188 300.212,406.24 C291.28,402.722 282.69,398.308 274.067,394.052 C259.178,386.704 243.796,383.661 227.776,389.421 C219.845,392.273 212.042,395.783 204.706,399.926 C182.31,412.572 160.303,412.504 137.799,400.056 C129.141,395.266 119.879,391.176 110.424,388.31 C96.303,384.03 82.639,386.948 68.426,394.315 C71.277,396.883 73.858,398.57 75.572,400.897 C78.29,404.586 81.451,405.152 85.549,403.951 C95.678,400.981 105.774,401.837 115.378,405.716 C125.191,409.68 134.719,414.369 144.267,418.96 C159.833,426.443 175.706,428.494 191.929,421.543 C200.767,417.756 209.296,413.252 218.012,409.177 C230.492,403.341 243.533,399.667 257.084,404.123 C267.726,407.622 278.066,412.213 288.203,417.029 C302.659,423.899 317.294,429.038 333.3,423.614 C341.43,420.86 349.404,417.416 357.047,413.498 C371.449,406.115 385.894,399.716 402.695,403.448 C403.49,403.624 404.732,403.132 405.352,402.526 C408.759,399.203 412.036,395.748 415.966,391.712 L415.966,391.712 Z M382.653,423.311 C382.44,422.94 382.228,422.57 382.015,422.2 C381.269,422.377 380.473,422.443 379.784,422.748 C369.646,427.24 359.394,431.499 349.427,436.341 C333.918,443.872 318.005,447.732 301.325,441.262 C290.523,437.074 280.197,431.666 269.614,426.902 C256.623,421.052 243.116,418.716 229.5,423.856 C218.524,427.999 207.979,433.298 197.303,438.216 C183.163,444.731 168.583,447.131 153.773,441.389 C142.976,437.202 132.661,431.78 122.075,427.032 C115.096,423.902 107.945,421.32 99.077,421.635 C100.661,423.122 101.406,423.957 102.281,424.621 C119.449,437.663 138.314,447.594 158.073,456.161 C169.788,461.241 180.812,460.065 191.832,455.432 C201.611,451.32 211.004,446.299 220.682,441.931 C235.454,435.262 250.6,434.302 265.695,440.553 C276.716,445.117 287.329,450.661 298.341,455.249 C305.178,458.098 312.248,460.809 320.001,457.845 C336.019,451.718 351.41,444.359 365.788,434.989 C371.513,431.255 377.037,427.212 382.653,423.311 L382.653,423.311 Z M282.732,467.416 C255.292,451.498 222.403,452.085 207.068,468.396 C219.269,472.892 262.276,472.412 282.732,467.416 L282.732,467.416 Z" id="Shape" sketch:type="MSShapeGroup"></path>
            <g id="Group" transform="translate(92.000000, 92.000000)" sketch:type="MSShapeGroup">
                <path d="M66.967,2.275 L75.818,2.275 L75.818,54.7 L66.217,54.7 L36.517,16.45 L36.517,54.7 L27.667,54.7 L27.667,2.275 L36.517,2.275 L66.967,41.425 L66.967,2.275 L66.967,2.275 Z" id="Shape"></path>
                <path d="M134.243,47.462 C128.942,52.637 122.392,55.225 114.593,55.225 C106.794,55.225 100.242,52.637 94.943,47.462 C89.644,42.287 86.994,35.837 86.994,28.112 C86.994,20.386 89.643,13.936 94.943,8.761 C100.243,3.586 106.792,1 114.592,1 C122.392,1 128.942,3.588 134.242,8.763 C139.541,13.938 142.191,20.388 142.191,28.114 C142.192,35.837 139.542,42.288 134.243,47.462 L134.243,47.462 Z M127.754,14.65 C124.179,10.951 119.791,9.1 114.592,9.1 C109.391,9.1 105.004,10.951 101.43,14.65 C97.854,18.351 96.067,22.838 96.067,28.113 C96.067,33.388 97.854,37.876 101.43,41.575 C105.004,45.276 109.391,47.125 114.592,47.125 C119.791,47.125 124.179,45.276 127.754,41.575 C131.328,37.876 133.117,33.388 133.117,28.113 C133.117,22.838 131.329,18.351 127.754,14.65 L127.754,14.65 Z" id="Shape"></path>
                <path d="M197.242,47.462 C191.941,52.637 185.392,55.225 177.593,55.225 C169.792,55.225 163.241,52.637 157.943,47.462 C152.642,42.287 149.993,35.837 149.993,28.112 C149.993,20.386 152.642,13.936 157.943,8.761 C163.242,3.586 169.793,0.998 177.593,0.998 C185.393,0.998 191.942,3.586 197.242,8.761 C202.542,13.936 205.192,20.386 205.192,28.112 C205.192,35.837 202.542,42.288 197.242,47.462 L197.242,47.462 Z M190.754,14.65 C187.179,10.951 182.791,9.1 177.592,9.1 C172.391,9.1 168.003,10.951 164.429,14.65 C160.854,18.351 159.067,22.838 159.067,28.113 C159.067,33.388 160.854,37.876 164.429,41.575 C168.003,45.276 172.391,47.125 177.592,47.125 C182.791,47.125 187.179,45.276 190.754,41.575 C194.328,37.876 196.116,33.388 196.116,28.113 C196.116,22.838 194.329,18.351 190.754,14.65 L190.754,14.65 Z" id="Shape"></path>
                <path d="M255.667,2.275 L264.517,2.275 L264.517,54.7 L254.917,54.7 L225.217,16.45 L225.217,54.7 L216.367,54.7 L216.367,2.275 L225.217,2.275 L255.667,41.425 L255.667,2.275 L255.667,2.275 Z" id="Shape"></path>
                <path d="M35.469,86.85 C39.117,89.9 40.944,94.601 40.944,100.95 C40.944,107.301 39.081,111.951 35.356,114.9 C31.631,117.851 25.918,119.325 18.219,119.325 L8.918,119.325 L8.918,134.7 L0.068,134.7 L0.068,82.275 L18.068,82.275 C26.019,82.275 31.819,83.8 35.469,86.85 L35.469,86.85 Z M29.207,108.488 C30.981,106.613 31.869,103.863 31.869,100.238 C31.869,96.613 30.744,94.05 28.494,92.55 C26.244,91.05 22.72,90.3 17.919,90.3 L8.919,90.3 L8.919,111.3 L19.194,111.3 C24.093,111.3 27.431,110.363 29.207,108.488 L29.207,108.488 Z" id="Shape"></path>
                <path d="M55.944,122.775 L50.694,134.7 L41.244,134.7 L64.344,82.275 L73.794,82.275 L96.895,134.7 L87.445,134.7 L82.195,122.775 L55.944,122.775 L55.944,122.775 Z M78.593,114.6 L69.069,93 L59.544,114.601 L78.593,114.601 L78.593,114.6 Z" id="Shape"></path>
                <path d="M128.092,126.675 C131.142,126.675 133.767,126.162 135.967,125.137 C138.167,124.113 140.467,122.475 142.867,120.225 L148.567,126.075 C143.017,132.225 136.279,135.301 128.354,135.301 C120.429,135.301 113.853,132.75 108.629,127.651 C103.403,122.551 100.791,116.101 100.791,108.301 C100.791,100.5 103.454,94.001 108.778,88.801 C114.103,83.601 120.828,81 128.954,81 C137.078,81 143.866,84 149.316,90 L143.691,96.15 C141.19,93.75 138.828,92.076 136.603,91.125 C134.377,90.176 131.766,89.7 128.766,89.7 C123.465,89.7 119.016,91.414 115.415,94.838 C111.815,98.264 110.016,102.638 110.016,107.963 C110.016,113.288 111.803,117.738 115.378,121.313 C118.955,124.888 123.192,126.675 128.092,126.675 L128.092,126.675 Z" id="Shape"></path>
                <path d="M159.367,82.275 L168.218,82.275 L168.218,134.7 L159.367,134.7 L159.367,82.275 L159.367,82.275 Z" id="Shape"></path>
                <path d="M191.617,90.525 L191.617,104.925 L214.867,104.925 L214.867,113.1 L191.617,113.1 L191.617,134.7 L182.767,134.7 L182.767,82.275 L217.716,82.275 L217.642,90.525 L191.617,90.525 L191.617,90.525 Z" id="Shape"></path>
                <path d="M228.066,82.275 L236.916,82.275 L236.916,134.7 L228.066,134.7 L228.066,82.275 L228.066,82.275 Z" id="Shape"></path>
                <path d="M275.39,126.675 C278.44,126.675 281.065,126.162 283.265,125.137 C285.465,124.113 287.765,122.475 290.165,120.225 L295.865,126.075 C290.315,132.225 283.577,135.301 275.652,135.301 C267.727,135.301 261.151,132.75 255.927,127.651 C250.701,122.551 248.089,116.101 248.089,108.301 C248.089,100.5 250.752,94.001 256.076,88.801 C261.401,83.601 268.126,81 276.252,81 C284.376,81 291.164,84 296.614,90 L290.989,96.15 C288.488,93.75 286.126,92.076 283.901,91.125 C281.675,90.176 279.064,89.7 276.064,89.7 C270.763,89.7 266.314,91.414 262.713,94.838 C259.113,98.264 257.314,102.638 257.314,107.963 C257.314,113.288 259.101,117.738 262.676,121.313 C266.252,124.888 270.49,126.675 275.39,126.675 L275.39,126.675 Z" id="Shape"></path>
            </g>
        </g>
    </g>
</svg>